# xmcd
#
# Track frame offsets:
#	150
#	18477
#	34588
#	51396
#	67454
#	79640
#	94119
#	109309
#	124458
#	140570
#	155492
#	169697
#	185214
#	200526
#	215687
#	231193
#	246908
#	263258
#
# Disc length: 3706 seconds
#
# Revision: 0
# Processed by: cddbd v1.5.2PL0 Copyright (c) Steve Scherf et al.
# Submitted via: EasyCDDAExtractor 16.0.6.1
#
DISCID=100e7812
DTITLE=Συλλογικός δίσκος - Μουσικό ημερολόγιο 2008 Οι βάρδοι
DYEAR=2007
DGENRE=Ποικίλη
TTITLE0=Παπαϊωάννου Γιάννης - Στα πεύκα και στα έλατα [Γιάννη Παπαϊωάννου-Χαρ.
TTITLE0=Βασιλειάδη]
TTITLE1=Μπίνης Τάκης - Το κουρασμένο βήμα σου [Μπ. Μπακάλη-Κώστα Βίρβου]
TTITLE2=Ευγενικός Αθανάσιος - Το φτωχομπούζουκο [Μαν. Χιώτη]
TTITLE3=Τσαουσάκης Πρόδρομος - Μιά στεχαχώρια [Απ. Καλδάρα-Κώστα Βίρβου]
TTITLE4=Νούρος Κώστας - Ο Μανώλης ο χασικλής [Ιωάννη Δραγάτση ή Ογδοντάκη]
TTITLE5=Περπινιάδης Στελλάκης - Εγώ θέλω πριγκηπέσσα [Παν. Τούντα]
TTITLE6=Βαμβακάρης Μάρκος - Ο Αντώνης ο βαρκάρης [Σπ. Περιστέρη]
TTITLE7=Ρούκουνας Κώστας ή Σαμιωτάκης - Ο Χάρος [Παν. Τούντα]
TTITLE8=Τζουανάκος Σταύρος - Σταλαγματιά, σταλαγματιά [Σταύρου Τζουανάκου-Νίκο
TTITLE8=υ Γκούμα]
TTITLE9=Κασιμάτης Ζαχαρίας - Ο μάγκας του Βοτανικού [Σπ. Περιστέρη]
TTITLE10=Γαβαλάς Πάνος - Για κρατήστε με πια φίλοι [Βαγγ. Πρέκα-Χαρ. Βασιλειάδ
TTITLE10=η]
TTITLE11=Τατασσόπουλος Γιάννης - Έφυγες μ' έναν άλλονε [Γιάννη Τατασσόπουλου-Ν
TTITLE11=ίκου Ρούτσου]
TTITLE12=Περπινιάδης Βαγγέλης - Κλάψτε με φίλοι, κλάψτε με [Βαγγ. Περπινιάδη]
TTITLE13=Χατζηχρήστος Απόστολος - Παλιόπαιδο [Απόστολου Χατζηχρήστου]
TTITLE14=Καζαντζίδης Στέλιος - Κανείς δεν ήρθε, να με δει [Κώστα Λαβίδα-Χρ. Κο
TTITLE14=λοκοτρώνη]
TTITLE15=Μπιθικώτσης Γρηγόρης - Τρελλοκόριτσο [Γρ. Μπιθικώτση-Γιάννη Παπαδόπου
TTITLE15=λου]
TTITLE16=Ζαγοραίος Σπύρος - Το κουρμπέτι [Βασ. Τσιτσάνη]
TTITLE17=Διαμαντίδης Αντώνης ή Νταλγκάς - Έμαθα πως είσαι μάγκας [ανωνύμου]
EXTD=
EXTT0=
EXTT1=
EXTT2=
EXTT3=
EXTT4=
EXTT5=
EXTT6=
EXTT7=
EXTT8=
EXTT9=
EXTT10=
EXTT11=
EXTT12=
EXTT13=
EXTT14=
EXTT15=
EXTT16=
EXTT17=
PLAYORDER=
